<svg width="120" height="90" viewBox="0 0 120 90" fill="none" xmlns="http://www.w3.org/2000/svg">
<path d="M117.185 26.25H103.153L99.2531 16.5C95.2453 6.47578 85.6805 0 74.8828 0H45.1172C34.3219 0 24.7547 6.47578 20.7445 16.5L16.8445 26.25H2.81485C0.984377 26.25 -0.358592 27.9703 0.0867209 29.7445L1.49297 35.3695C1.80469 36.6211 2.92969 37.5 4.2211 37.5H8.925C5.77735 40.2492 3.75 44.2453 3.75 48.75V60C3.75 63.7781 5.19375 67.1883 7.5 69.8273V82.5C7.5 86.6414 10.8586 90 15 90H22.5C26.6414 90 30 86.6414 30 82.5V75H90V82.5C90 86.6414 93.3586 90 97.5 90H105C109.141 90 112.5 86.6414 112.5 82.5V69.8273C114.806 67.1906 116.25 63.7805 116.25 60V48.75C116.25 44.2453 114.223 40.2492 111.077 37.5H115.781C117.073 37.5 118.198 36.6211 118.509 35.3695L119.916 29.7445C120.359 27.9703 119.016 26.25 117.185 26.25ZM34.6711 22.0711C36.3797 17.8008 40.5164 15 45.1172 15H74.8828C79.4836 15 83.6203 17.8008 85.3289 22.0711L90 33.75H30L34.6711 22.0711ZM22.5 59.9531C18 59.9531 15 56.9625 15 52.4766C15 47.9906 18 45 22.5 45C27 45 33.75 51.7289 33.75 56.2148C33.75 60.7008 27 59.9531 22.5 59.9531ZM97.5 59.9531C93 59.9531 86.25 60.7008 86.25 56.2148C86.25 51.7289 93 45 97.5 45C102 45 105 47.9906 105 52.4766C105 56.9625 102 59.9531 97.5 59.9531Z" fill="white"/>
</svg>
