<svg width="36" height="36" viewBox="0 0 36 36" fill="none" xmlns="http://www.w3.org/2000/svg">
<path d="M31.75 0.5H4.25C3.25544 0.5 2.30161 0.895088 1.59835 1.59835C0.895088 2.30161 0.5 3.25544 0.5 4.25L0.5 31.75C0.5 32.7446 0.895088 33.6984 1.59835 34.4017C2.30161 35.1049 3.25544 35.5 4.25 35.5H14.9727V23.6008H10.0508V18H14.9727V13.7313C14.9727 8.87578 17.8633 6.19375 22.2906 6.19375C24.4109 6.19375 26.6281 6.57188 26.6281 6.57188V11.3375H24.1852C21.7781 11.3375 21.0273 12.8312 21.0273 14.3633V18H26.4008L25.5414 23.6008H21.0273V35.5H31.75C32.7446 35.5 33.6984 35.1049 34.4017 34.4017C35.1049 33.6984 35.5 32.7446 35.5 31.75V4.25C35.5 3.25544 35.1049 2.30161 34.4017 1.59835C33.6984 0.895088 32.7446 0.5 31.75 0.5V0.5Z" fill="white"/>
</svg>
