<svg width="36" height="36" viewBox="0 0 36 36" fill="none" xmlns="http://www.w3.org/2000/svg">
<path d="M18.0078 9.01562C13.0391 9.01562 9.03125 13.0234 9.03125 17.9922C9.03125 22.9609 13.0391 26.9687 18.0078 26.9687C22.9766 26.9687 26.9844 22.9609 26.9844 17.9922C26.9844 13.0234 22.9766 9.01562 18.0078 9.01562ZM18.0078 23.8281C14.7969 23.8281 12.1719 21.2109 12.1719 17.9922C12.1719 14.7734 14.7891 12.1562 18.0078 12.1562C21.2266 12.1562 23.8438 14.7734 23.8438 17.9922C23.8438 21.2109 21.2188 23.8281 18.0078 23.8281V23.8281ZM29.4453 8.64844C29.4453 9.8125 28.5078 10.7422 27.3516 10.7422C26.1875 10.7422 25.2578 9.80469 25.2578 8.64844C25.2578 7.49219 26.1953 6.55469 27.3516 6.55469C28.5078 6.55469 29.4453 7.49219 29.4453 8.64844ZM35.3906 10.7734C35.2578 7.96875 34.6172 5.48437 32.5625 3.4375C30.5156 1.39062 28.0313 0.75 25.2266 0.609375C22.3359 0.445313 13.6719 0.445313 10.7813 0.609375C7.98438 0.742187 5.5 1.38281 3.44531 3.42969C1.39063 5.47656 0.757812 7.96094 0.617187 10.7656C0.453125 13.6562 0.453125 22.3203 0.617187 25.2109C0.75 28.0156 1.39063 30.5 3.44531 32.5469C5.5 34.5938 7.97656 35.2344 10.7813 35.375C13.6719 35.5391 22.3359 35.5391 25.2266 35.375C28.0313 35.2422 30.5156 34.6016 32.5625 32.5469C34.6094 30.5 35.25 28.0156 35.3906 25.2109C35.5547 22.3203 35.5547 13.6641 35.3906 10.7734V10.7734ZM31.6562 28.3125C31.0469 29.8437 29.8672 31.0234 28.3281 31.6406C26.0234 32.5547 20.5547 32.3437 18.0078 32.3437C15.4609 32.3437 9.98437 32.5469 7.6875 31.6406C6.15625 31.0312 4.97656 29.8516 4.35938 28.3125C3.44531 26.0078 3.65625 20.5391 3.65625 17.9922C3.65625 15.4453 3.45313 9.96875 4.35938 7.67187C4.96875 6.14062 6.14844 4.96094 7.6875 4.34375C9.99219 3.42969 15.4609 3.64062 18.0078 3.64062C20.5547 3.64062 26.0313 3.4375 28.3281 4.34375C29.8594 4.95312 31.0391 6.13281 31.6562 7.67187C32.5703 9.97656 32.3594 15.4453 32.3594 17.9922C32.3594 20.5391 32.5703 26.0156 31.6562 28.3125Z" fill="white"/>
</svg>
