<svg width="28" height="28" viewBox="0 0 28 28" fill="none" xmlns="http://www.w3.org/2000/svg">
<path d="M14.0003 15.6667C18.1409 15.6667 21.5003 12.3073 21.5003 8.16669C21.5003 4.02606 18.1409 0.666687 14.0003 0.666687C9.8597 0.666687 6.50033 4.02606 6.50033 8.16669C6.50033 12.3073 9.8597 15.6667 14.0003 15.6667ZM20.667 17.3334H17.7972C16.641 17.8646 15.3545 18.1667 14.0003 18.1667C12.6462 18.1667 11.3649 17.8646 10.2035 17.3334H7.33366C3.65137 17.3334 0.666992 20.3177 0.666992 24V24.8334C0.666992 26.2136 1.78678 27.3334 3.16699 27.3334H24.8337C26.2139 27.3334 27.3337 26.2136 27.3337 24.8334V24C27.3337 20.3177 24.3493 17.3334 20.667 17.3334Z" fill="#262626"/>
</svg>
