<svg width="120" height="96" viewBox="0 0 120 96" fill="none" xmlns="http://www.w3.org/2000/svg">
<path d="M116.681 50.8313L95.0813 42.3938C94.3125 42.0938 92.7188 41.7 90.9187 42.3938L69.3188 50.8313C67.3125 51.6188 66 53.4562 66 55.5C66 76.425 78.8812 90.9 90.9187 95.6062C92.7188 96.3 94.2938 95.9062 95.0813 95.6062C104.7 91.8562 120 78.8438 120 55.5C120 53.4562 118.688 51.6188 116.681 50.8313ZM93 86.7V51.2437L110.906 58.2375C109.856 74.5687 99.4875 83.625 93 86.7ZM42 48C55.2562 48 66 37.2562 66 24C66 10.7438 55.2562 0 42 0C28.7438 0 18 10.7438 18 24C18 37.2562 28.7438 48 42 48ZM60 55.5C60 55.0312 60.15 54.6 60.2063 54.15C59.7375 54.1312 59.2875 54 58.8 54H55.6687C51.5062 55.9125 46.875 57 42 57C37.125 57 32.5125 55.9125 28.3313 54H25.2C11.2875 54 0 65.2875 0 79.2V87C0 91.9688 4.03125 96 9 96H75C76.275 96 77.4938 95.7188 78.6 95.25C68.475 87.2063 60 73.3688 60 55.5Z" fill="white"/>
</svg>
