<svg width="120" height="84" viewBox="0 0 120 84" fill="none" xmlns="http://www.w3.org/2000/svg">
<path d="M36 42C47.6063 42 57 32.6063 57 21C57 9.39375 47.6063 0 36 0C24.3937 0 15 9.39375 15 21C15 32.6063 24.3937 42 36 42ZM50.4 48H48.8438C44.9437 49.875 40.6125 51 36 51C31.3875 51 27.075 49.875 23.1562 48H21.6C9.675 48 0 57.675 0 69.6V75C0 79.9688 4.03125 84 9 84H63C67.9688 84 72 79.9688 72 75V69.6C72 57.675 62.325 48 50.4 48ZM90 42C99.9375 42 108 33.9375 108 24C108 14.0625 99.9375 6 90 6C80.0625 6 72 14.0625 72 24C72 33.9375 80.0625 42 90 42ZM99 48H98.2875C95.6813 48.9 92.925 49.5 90 49.5C87.075 49.5 84.3187 48.9 81.7125 48H81C77.175 48 73.65 49.1062 70.5562 50.8875C75.1312 55.8187 78 62.3625 78 69.6V76.8C78 77.2125 77.9062 77.6062 77.8875 78H111C115.969 78 120 73.9688 120 69C120 57.3937 110.606 48 99 48Z" fill="white"/>
</svg>
