<svg width="36" height="36" viewBox="0 0 36 36" fill="none" xmlns="http://www.w3.org/2000/svg">
<path d="M30.2578 5.58594C26.9844 2.30469 22.625 0.5 17.9922 0.5C8.42969 0.5 0.648438 8.28125 0.648438 17.8438C0.648438 20.8984 1.44531 23.8828 2.96094 26.5156L0.5 35.5L9.69531 33.0859C12.2266 34.4688 15.0781 35.1953 17.9844 35.1953H17.9922C27.5469 35.1953 35.5 27.4141 35.5 17.8516C35.5 13.2188 33.5312 8.86719 30.2578 5.58594ZM17.9922 32.2734C15.3984 32.2734 12.8594 31.5781 10.6484 30.2656L10.125 29.9531L4.67188 31.3828L6.125 26.0625L5.78125 25.5156C4.33594 23.2188 3.57812 20.5703 3.57812 17.8438C3.57812 9.89844 10.0469 3.42969 18 3.42969C21.8516 3.42969 25.4688 4.92969 28.1875 7.65625C30.9062 10.3828 32.5781 14 32.5703 17.8516C32.5703 25.8047 25.9375 32.2734 17.9922 32.2734ZM25.8984 21.4766C25.4688 21.2578 23.3359 20.2109 22.9375 20.0703C22.5391 19.9219 22.25 19.8516 21.9609 20.2891C21.6719 20.7266 20.8438 21.6953 20.5859 21.9922C20.3359 22.2812 20.0781 22.3203 19.6484 22.1016C17.1016 20.8281 15.4297 19.8281 13.75 16.9453C13.3047 16.1797 14.1953 16.2344 15.0234 14.5781C15.1641 14.2891 15.0937 14.0391 14.9844 13.8203C14.875 13.6016 14.0078 11.4688 13.6484 10.6016C13.2969 9.75781 12.9375 9.875 12.6719 9.85938C12.4219 9.84375 12.1328 9.84375 11.8438 9.84375C11.5547 9.84375 11.0859 9.95312 10.6875 10.3828C10.2891 10.8203 9.17188 11.8672 9.17188 14C9.17188 16.1328 10.7266 18.1953 10.9375 18.4844C11.1562 18.7734 13.9922 23.1484 18.3438 25.0312C21.0938 26.2188 22.1719 26.3203 23.5469 26.1172C24.3828 25.9922 26.1094 25.0703 26.4688 24.0547C26.8281 23.0391 26.8281 22.1719 26.7188 21.9922C26.6172 21.7969 26.3281 21.6875 25.8984 21.4766Z" fill="white"/>
</svg>
